<svg xmlns="http://www.w3.org/2000/svg" width="300" height="300" viewBox="0 0 300 300" role="img" aria-label="Burn.Blue LinkedIn logo">
  <defs>
    <linearGradient id="bg" x1="0" y1="0" x2="1" y2="1">
      <stop offset="0" stop-color="#050e1c"/>
      <stop offset="1" stop-color="#084696"/>
    </linearGradient>
    <radialGradient id="glow" cx="60%" cy="37%" r="70%">
      <stop offset="0" stop-color="#0877ff" stop-opacity="0.36"/>
      <stop offset="1" stop-color="#0877ff" stop-opacity="0"/>
    </radialGradient>
    <filter id="shadow" x="-30%" y="-30%" width="160%" height="170%">
      <feDropShadow dx="0" dy="8" stdDeviation="6" flood-color="#000" flood-opacity="0.38"/>
    </filter>
  </defs>
  <rect width="300" height="300" rx="0" fill="url(#bg)"/>
  <rect width="300" height="300" fill="url(#glow)"/>
  <circle cx="150" cy="150" r="128" fill="none" stroke="#8fd3ff" stroke-opacity="0.23" stroke-width="2"/>
  <circle cx="150" cy="150" r="116" fill="none" stroke="#0877ff" stroke-opacity="0.22" stroke-width="1"/>
  <g transform="translate(40 36) scale(3.42)" filter="url(#shadow)">
    <path fill="#0877ff" d="M34.7 4.2c2.6 9.2.4 14.8-3.4 20.2-2.2-5.2-6.4-8.6-6.4-8.6.8 7.6-6.7 12.5-9.4 18.8-4.4 10.1 2.1 21.9 13.8 24.3 12.8 2.6 24.1-6.2 24.1-18.6 0-9.9-6.2-17-12.2-23.8-3-3.4-5.5-6.5-6.5-12.3Z"/>
    <path fill="#8fd3ff" d="M33 55.1c-5.8-.2-10.4-4.7-10.4-10.4 0-4.1 2.6-7.3 5.1-10.4 1.5 3.4 4.1 5.2 4.1 5.2 1.2-5.3 4.4-8.5 4.4-8.5.4 4.7 4.9 8.2 5.7 13.4.9 6-3.1 10.9-8.9 10.7Z"/>
  </g>
</svg>