<svg xmlns="http://www.w3.org/2000/svg" width="1200" height="630" viewBox="0 0 1200 630" role="img" aria-labelledby="title desc">
  <title id="title">Burn.Blue social preview</title>
  <desc id="desc">Dark Burn.Blue share image with flame logo and headline: Build smarter systems with Burn.Blue.</desc>
  <defs>
    <radialGradient id="bgA" cx="16%" cy="8%" r="72%">
      <stop offset="0" stop-color="#0c5cff" stop-opacity="0.44"/>
      <stop offset="0.42" stop-color="#061a31" stop-opacity="0.96"/>
      <stop offset="1" stop-color="#07111f"/>
    </radialGradient>
    <radialGradient id="bgB" cx="86%" cy="16%" r="58%">
      <stop offset="0" stop-color="#2dd5ff" stop-opacity="0.28"/>
      <stop offset="0.54" stop-color="#07111f" stop-opacity="0"/>
    </radialGradient>
    <linearGradient id="card" x1="0" x2="1" y1="0" y2="1">
      <stop stop-color="#12243b" stop-opacity="0.9"/>
      <stop offset="1" stop-color="#07111f" stop-opacity="0.82"/>
    </linearGradient>
    <linearGradient id="stroke" x1="0" x2="1">
      <stop stop-color="#70b8ff" stop-opacity="0.65"/>
      <stop offset="1" stop-color="#2dd5ff" stop-opacity="0.2"/>
    </linearGradient>
    <filter id="softGlow" x="-80%" y="-80%" width="260%" height="260%">
      <feGaussianBlur stdDeviation="28" result="blur"/>
      <feColorMatrix in="blur" type="matrix" values="0 0 0 0 0.03 0 0 0 0 0.47 0 0 0 0 1 0 0 0 .78 0"/>
      <feMerge><feMergeNode/><feMergeNode in="SourceGraphic"/></feMerge>
    </filter>
    <filter id="shadow" x="-20%" y="-20%" width="140%" height="140%">
      <feDropShadow dx="0" dy="24" stdDeviation="30" flood-color="#000" flood-opacity="0.32"/>
    </filter>
  </defs>

  <rect width="1200" height="630" fill="#07111f"/>
  <rect width="1200" height="630" fill="url(#bgA)"/>
  <rect width="1200" height="630" fill="url(#bgB)"/>
  <circle cx="1032" cy="522" r="244" fill="#2dd5ff" opacity="0.08"/>
  <circle cx="145" cy="506" r="178" fill="#70b8ff" opacity="0.07"/>
  <path d="M-20 514 C198 430 300 620 520 520 C696 440 805 405 1220 450" fill="none" stroke="#70b8ff" stroke-width="2" opacity="0.17"/>
  <path d="M-20 544 C210 470 314 640 534 548 C708 476 828 450 1220 504" fill="none" stroke="#2dd5ff" stroke-width="2" opacity="0.11"/>

  <rect x="72" y="66" width="1056" height="498" rx="44" fill="url(#card)" stroke="url(#stroke)" filter="url(#shadow)"/>

  <g transform="translate(128 118)">
    <g filter="url(#softGlow)">
      <svg x="0" y="-3" width="92" height="92" viewBox="0 0 64 64" aria-hidden="true">
        <path fill="#0877ff" d="M34.7 4.2c2.6 9.2.4 14.8-3.4 20.2-2.2-5.2-6.4-8.6-6.4-8.6.8 7.6-6.7 12.5-9.4 18.8-4.4 10.1 2.1 21.9 13.8 24.3 12.8 2.6 24.1-6.2 24.1-18.6 0-9.9-6.2-17-12.2-23.8-3-3.4-5.5-6.5-6.5-12.3Z"/>
        <path fill="#8fd3ff" d="M33 55.1c-5.8-.2-10.4-4.7-10.4-10.4 0-4.1 2.6-7.3 5.1-10.4 1.5 3.4 4.1 5.2 4.1 5.2 1.2-5.3 4.4-8.5 4.4-8.5.4 4.7 4.9 8.2 5.7 13.4.9 6-3.1 10.9-8.9 10.7Z"/>
      </svg>
    </g>
    <text x="112" y="62" font-family="Lato, Inter, ui-sans-serif, system-ui, sans-serif" font-size="52" font-weight="900" letter-spacing="-2" fill="#f4f8ff">Burn.Blue</text>
  </g>

  <g transform="translate(128 280)">
    <text font-family="Lato, Inter, ui-sans-serif, system-ui, sans-serif" font-weight="900" letter-spacing="-3" fill="#f4f8ff">
      <tspan x="0" y="0" font-size="82">Build smarter systems</tspan>
      <tspan x="0" y="92" font-size="82">with </tspan><tspan fill="#70b8ff" font-size="82">Burn.Blue.</tspan>
    </text>
    <text x="0" y="214" font-family="Lato, Inter, ui-sans-serif, system-ui, sans-serif" font-size="31" font-weight="700" fill="#b6c7dd">Web design · AI assistants · business automation</text>
    <text x="0" y="262" font-family="Lato, Inter, ui-sans-serif, system-ui, sans-serif" font-size="25" font-weight="800" letter-spacing="1.5" fill="#8ecbff">ST. LOUIS-BASED · SERVING CLIENTS NATIONWIDE</text>
  </g>

  <g opacity="0.42">
    <rect x="842" y="130" width="198" height="12" rx="6" fill="#70b8ff" opacity="0.35"/>
    <rect x="842" y="164" width="260" height="12" rx="6" fill="#2dd5ff" opacity="0.22"/>
    <rect x="842" y="198" width="158" height="12" rx="6" fill="#70b8ff" opacity="0.18"/>
  </g>
</svg>
