<svg xmlns="http://www.w3.org/2000/svg" width="900" height="560" viewBox="0 0 900 560" role="img" aria-label="Backup + Power Kit">
<defs><linearGradient id="bg" x1="0" y1="0" x2="1" y2="1"><stop offset="0" stop-color="#061426"/><stop offset=".58" stop-color="#0b2b4d"/><stop offset="1" stop-color="#063a8a"/></linearGradient><radialGradient id="glow" cx="36%" cy="18%" r="65%"><stop offset="0" stop-color="#37d7ff" stop-opacity=".72"/><stop offset=".45" stop-color="#37d7ff" stop-opacity=".2"/><stop offset="1" stop-color="#37d7ff" stop-opacity="0"/></radialGradient><filter id="shadow" x="-25%" y="-25%" width="150%" height="150%"><feDropShadow dx="0" dy="22" stdDeviation="18" flood-color="#000" flood-opacity=".38"/></filter></defs>
<rect width="900" height="560" rx="44" fill="url(#bg)"/><rect width="900" height="560" rx="44" fill="url(#glow)"/><g opacity=".2" stroke="#9ee6ff" stroke-width="2" fill="none"><path d="M70 420 C190 320 275 430 385 340 S555 235 690 300 805 230 850 145"/><path d="M70 108H830"/><path d="M120 78V485"/><path d="M760 92V506"/></g><g filter="url(#shadow)"><rect x="272" y="148" width="226" height="250" rx="30" fill="#0a1a2f" stroke="#8ee6ff" stroke-width="5"/><rect x="320" y="190" width="130" height="170" rx="18" fill="#12385d"/><rect x="344" y="216" width="82" height="118" rx="10" fill="#2dd5ff" opacity=".85"/><rect x="514" y="196" width="118" height="154" rx="22" fill="#0a1a2f" stroke="#6bdcff" stroke-width="5"/><rect x="548" y="176" width="50" height="22" rx="8" fill="#d7f4ff"/><path d="M574 224v96" stroke="#ffd66b" stroke-width="18" stroke-linecap="round"/></g><text x="450" y="492" text-anchor="middle" font-family="Inter,Arial,sans-serif" font-size="36" font-weight="900" fill="#f4f8ff">Backup + Power Kit</text><text x="450" y="526" text-anchor="middle" font-family="Inter,Arial,sans-serif" font-size="20" font-weight="800" fill="#9ee6ff">Burn.Blue gear preview</text></svg>