<svg xmlns="http://www.w3.org/2000/svg" width="900" height="560" viewBox="0 0 900 560" role="img" aria-label="32GB Business Laptop">
<defs><linearGradient id="bg" x1="0" y1="0" x2="1" y2="1"><stop offset="0" stop-color="#061426"/><stop offset=".58" stop-color="#0b2b4d"/><stop offset="1" stop-color="#063a8a"/></linearGradient><radialGradient id="glow" cx="36%" cy="18%" r="65%"><stop offset="0" stop-color="#37d7ff" stop-opacity=".72"/><stop offset=".45" stop-color="#37d7ff" stop-opacity=".2"/><stop offset="1" stop-color="#37d7ff" stop-opacity="0"/></radialGradient><filter id="shadow" x="-25%" y="-25%" width="150%" height="150%"><feDropShadow dx="0" dy="22" stdDeviation="18" flood-color="#000" flood-opacity=".38"/></filter></defs>
<rect width="900" height="560" rx="44" fill="url(#bg)"/><rect width="900" height="560" rx="44" fill="url(#glow)"/><g opacity=".2" stroke="#9ee6ff" stroke-width="2" fill="none"><path d="M70 420 C190 320 275 430 385 340 S555 235 690 300 805 230 850 145"/><path d="M70 108H830"/><path d="M120 78V485"/><path d="M760 92V506"/></g><g filter="url(#shadow)"><rect x="260" y="124" width="380" height="240" rx="28" fill="#09192d" stroke="#8ee6ff" stroke-width="5"/><rect x="292" y="156" width="316" height="172" rx="16" fill="#12385d"/><rect x="226" y="376" width="448" height="42" rx="18" fill="#d7f4ff"/><rect x="286" y="386" width="328" height="12" rx="6" fill="#6bdcff" opacity=".55"/></g><text x="450" y="492" text-anchor="middle" font-family="Inter,Arial,sans-serif" font-size="36" font-weight="900" fill="#f4f8ff">32GB Business Laptop</text><text x="450" y="526" text-anchor="middle" font-family="Inter,Arial,sans-serif" font-size="20" font-weight="800" fill="#9ee6ff">Burn.Blue gear preview</text></svg>